{
	"asset":{
		"generator":"Khronos glTF Blender I/O v4.2.57",
		"version":"2.0"
	},
	"extensionsUsed":[
		"KHR_materials_unlit",
		"KHR_materials_emissive_strength"
	],
	"scene":0,
	"scenes":[
		{
			"name":"Scene",
			"nodes":[
				10,
				11
			]
		}
	],
	"nodes":[
		{
			"mesh":0,
			"name":"Object_10"
		},
		{
			"mesh":1,
			"name":"Object_2"
		},
		{
			"mesh":2,
			"name":"Object_3"
		},
		{
			"mesh":3,
			"name":"Object_4"
		},
		{
			"mesh":4,
			"name":"Object_5"
		},
		{
			"mesh":5,
			"name":"Object_6"
		},
		{
			"mesh":6,
			"name":"Object_7"
		},
		{
			"mesh":7,
			"name":"Object_8"
		},
		{
			"mesh":8,
			"name":"Object_9"
		},
		{
			"children":[
				0,
				1,
				2,
				3,
				4,
				5,
				6,
				7,
				8
			],
			"name":"final_v01.obj.cleaner.materialmerger.gles"
		},
		{
			"children":[
				9
			],
			"name":"Sketchfab_model",
			"rotation":[
				-0.5181576609611511,
				0.4811576008796692,
				0.4811576008796692,
				0.5181576609611511
			],
			"scale":[
				0.036866750568151474,
				0.036866750568151474,
				0.036866750568151474
			],
			"translation":[
				-3.9158716201782227,
				0,
				0
			]
		},
		{
			"mesh":9,
			"name":"Cube",
			"scale":[
				8,
				4,
				4
			],
			"translation":[
				0,
				4,
				0
			]
		}
	],
	"materials":[
		{
			"doubleSided":true,
			"extensions":{
				"KHR_materials_unlit":{}
			},
			"name":"lambert7SG",
			"pbrMetallicRoughness":{
				"baseColorTexture":{
					"index":0
				},
				"metallicFactor":0,
				"roughnessFactor":0.9
			}
		},
		{
			"extensions":{
				"KHR_materials_unlit":{}
			},
			"name":"lambert5SG",
			"pbrMetallicRoughness":{
				"baseColorTexture":{
					"index":1
				},
				"metallicFactor":0,
				"roughnessFactor":0.9
			}
		},
		{
			"extensions":{
				"KHR_materials_unlit":{}
			},
			"name":"lambert6SG",
			"pbrMetallicRoughness":{
				"baseColorTexture":{
					"index":2
				},
				"metallicFactor":0,
				"roughnessFactor":0.9
			}
		},
		{
			"doubleSided":true,
			"name":"BaseTexture",
			"pbrMetallicRoughness":{
				"baseColorTexture":{
					"index":3
				},
				"metallicFactor":0,
				"roughnessFactor":0.5
			}
		},
		{
			"doubleSided":true,
			"emissiveFactor":[
				1,
				1,
				1
			],
			"extensions":{
				"KHR_materials_emissive_strength":{
					"emissiveStrength":10
				}
			},
			"name":"Material",
			"pbrMetallicRoughness":{
				"baseColorFactor":[
					0,
					0,
					0,
					1
				]
			}
		}
	],
	"meshes":[
		{
			"name":"Object_8",
			"primitives":[
				{
					"attributes":{
						"POSITION":0,
						"NORMAL":1,
						"TEXCOORD_0":2
					},
					"indices":3,
					"material":0
				}
			]
		},
		{
			"name":"Object_0",
			"primitives":[
				{
					"attributes":{
						"POSITION":4,
						"NORMAL":5,
						"TEXCOORD_0":6
					},
					"indices":7,
					"material":1
				}
			]
		},
		{
			"name":"Object_1",
			"primitives":[
				{
					"attributes":{
						"POSITION":8,
						"NORMAL":9,
						"TEXCOORD_0":10
					},
					"indices":11,
					"material":1
				}
			]
		},
		{
			"name":"Object_2",
			"primitives":[
				{
					"attributes":{
						"POSITION":12,
						"NORMAL":13,
						"TEXCOORD_0":14
					},
					"indices":15,
					"material":1
				}
			]
		},
		{
			"name":"Object_3",
			"primitives":[
				{
					"attributes":{
						"POSITION":16,
						"NORMAL":17,
						"TEXCOORD_0":18
					},
					"indices":19,
					"material":2
				}
			]
		},
		{
			"name":"Object_4",
			"primitives":[
				{
					"attributes":{
						"POSITION":20,
						"NORMAL":21,
						"TEXCOORD_0":22
					},
					"indices":23,
					"material":2
				}
			]
		},
		{
			"name":"Object_5",
			"primitives":[
				{
					"attributes":{
						"POSITION":24,
						"NORMAL":25,
						"TEXCOORD_0":26
					},
					"indices":27,
					"material":2
				}
			]
		},
		{
			"name":"Object_6",
			"primitives":[
				{
					"attributes":{
						"POSITION":28,
						"NORMAL":29,
						"TEXCOORD_0":30
					},
					"indices":31,
					"material":2
				}
			]
		},
		{
			"name":"Object_7",
			"primitives":[
				{
					"attributes":{
						"POSITION":32,
						"NORMAL":33,
						"TEXCOORD_0":34
					},
					"indices":35,
					"material":2
				}
			]
		},
		{
			"name":"Cube",
			"primitives":[
				{
					"attributes":{
						"POSITION":36,
						"NORMAL":37,
						"TEXCOORD_0":38
					},
					"indices":39,
					"material":3
				},
				{
					"attributes":{
						"POSITION":40,
						"NORMAL":41,
						"TEXCOORD_0":42
					},
					"indices":43,
					"material":4
				}
			]
		}
	],
	"textures":[
		{
			"sampler":0,
			"source":0
		},
		{
			"sampler":0,
			"source":1
		},
		{
			"sampler":0,
			"source":2
		},
		{
			"sampler":0,
			"source":3
		}
	],
	"images":[
		{
			"mimeType":"image/png",
			"name":"lambert7SG_baseColor",
			"uri":"lambert7SG_baseColor.png"
		},
		{
			"mimeType":"image/png",
			"name":"lambert5SG_baseColor",
			"uri":"lambert5SG_baseColor.png"
		},
		{
			"mimeType":"image/png",
			"name":"lambert6SG_baseColor",
			"uri":"lambert6SG_baseColor.png"
		},
		{
			"mimeType":"image/png",
			"name":"baseColor",
			"uri":"baseColor.png"
		}
	],
	"accessors":[
		{
			"bufferView":0,
			"componentType":5126,
			"count":4746,
			"max":[
				68.00850677490234,
				67.71842193603516,
				145.226806640625
			],
			"min":[
				-68.00846862792969,
				-67.7183837890625,
				3.999999989900971e-06
			],
			"type":"VEC3"
		},
		{
			"bufferView":1,
			"componentType":5126,
			"count":4746,
			"type":"VEC3"
		},
		{
			"bufferView":2,
			"componentType":5126,
			"count":4746,
			"type":"VEC2"
		},
		{
			"bufferView":3,
			"componentType":5123,
			"count":18081,
			"type":"SCALAR"
		},
		{
			"bufferView":4,
			"componentType":5126,
			"count":9307,
			"max":[
				17.13805389404297,
				23.375019073486328,
				118.35834503173828
			],
			"min":[
				-15.105758666992188,
				-6.944221019744873,
				90.77648162841797
			],
			"type":"VEC3"
		},
		{
			"bufferView":5,
			"componentType":5126,
			"count":9307,
			"type":"VEC3"
		},
		{
			"bufferView":6,
			"componentType":5126,
			"count":9307,
			"type":"VEC2"
		},
		{
			"bufferView":7,
			"componentType":5123,
			"count":28893,
			"type":"SCALAR"
		},
		{
			"bufferView":8,
			"componentType":5126,
			"count":7598,
			"max":[
				17.169715881347656,
				22.783977508544922,
				116.29719543457031
			],
			"min":[
				-14.986136436462402,
				-6.975966930389404,
				88.66398620605469
			],
			"type":"VEC3"
		},
		{
			"bufferView":9,
			"componentType":5126,
			"count":7598,
			"type":"VEC3"
		},
		{
			"bufferView":10,
			"componentType":5126,
			"count":7598,
			"type":"VEC2"
		},
		{
			"bufferView":11,
			"componentType":5123,
			"count":36408,
			"type":"SCALAR"
		},
		{
			"bufferView":12,
			"componentType":5126,
			"count":3180,
			"max":[
				17.169715881347656,
				23.4066219329834,
				118.39031219482422
			],
			"min":[
				-15.137554168701172,
				-3.6780929565429688,
				90.74467468261719
			],
			"type":"VEC3"
		},
		{
			"bufferView":13,
			"componentType":5126,
			"count":3180,
			"type":"VEC3"
		},
		{
			"bufferView":14,
			"componentType":5126,
			"count":3180,
			"type":"VEC2"
		},
		{
			"bufferView":15,
			"componentType":5123,
			"count":10479,
			"type":"SCALAR"
		},
		{
			"bufferView":16,
			"componentType":5126,
			"count":4025,
			"max":[
				19.624601364135742,
				41.493621826171875,
				99.39104461669922
			],
			"min":[
				-19.27708625793457,
				-4.088478088378906,
				39.111045837402344
			],
			"type":"VEC3"
		},
		{
			"bufferView":17,
			"componentType":5126,
			"count":4025,
			"type":"VEC3"
		},
		{
			"bufferView":18,
			"componentType":5126,
			"count":4025,
			"type":"VEC2"
		},
		{
			"bufferView":19,
			"componentType":5123,
			"count":19014,
			"type":"SCALAR"
		},
		{
			"bufferView":20,
			"componentType":5126,
			"count":10002,
			"max":[
				28.39597511291504,
				37.26466369628906,
				98.6266860961914
			],
			"min":[
				-27.285478591918945,
				-45.85689926147461,
				22.170337677001953
			],
			"type":"VEC3"
		},
		{
			"bufferView":21,
			"componentType":5126,
			"count":10002,
			"type":"VEC3"
		},
		{
			"bufferView":22,
			"componentType":5126,
			"count":10002,
			"type":"VEC2"
		},
		{
			"bufferView":23,
			"componentType":5123,
			"count":51384,
			"type":"SCALAR"
		},
		{
			"bufferView":24,
			"componentType":5126,
			"count":3463,
			"max":[
				19.58975601196289,
				41.46179962158203,
				98.63541412353516
			],
			"min":[
				-19.24541473388672,
				-3.372368097305298,
				39.14398956298828
			],
			"type":"VEC3"
		},
		{
			"bufferView":25,
			"componentType":5126,
			"count":3463,
			"type":"VEC3"
		},
		{
			"bufferView":26,
			"componentType":5126,
			"count":3463,
			"type":"VEC2"
		},
		{
			"bufferView":27,
			"componentType":5123,
			"count":16920,
			"type":"SCALAR"
		},
		{
			"bufferView":28,
			"componentType":5126,
			"count":9922,
			"max":[
				28.3618221282959,
				37.22968673706055,
				96.41387176513672
			],
			"min":[
				-27.25138282775879,
				-45.82222366333008,
				22.20456314086914
			],
			"type":"VEC3"
		},
		{
			"bufferView":29,
			"componentType":5126,
			"count":9922,
			"type":"VEC3"
		},
		{
			"bufferView":30,
			"componentType":5126,
			"count":9922,
			"type":"VEC2"
		},
		{
			"bufferView":31,
			"componentType":5123,
			"count":51234,
			"type":"SCALAR"
		},
		{
			"bufferView":32,
			"componentType":5126,
			"count":226,
			"max":[
				8.813611030578613,
				11.606122970581055,
				94.80892181396484
			],
			"min":[
				-5.2216081619262695,
				-2.6654129028320312,
				81.51506042480469
			],
			"type":"VEC3"
		},
		{
			"bufferView":33,
			"componentType":5126,
			"count":226,
			"type":"VEC3"
		},
		{
			"bufferView":34,
			"componentType":5126,
			"count":226,
			"type":"VEC2"
		},
		{
			"bufferView":35,
			"componentType":5123,
			"count":762,
			"type":"SCALAR"
		},
		{
			"bufferView":36,
			"componentType":5126,
			"count":48,
			"max":[
				1,
				1,
				1
			],
			"min":[
				-1,
				-1,
				-1
			],
			"type":"VEC3"
		},
		{
			"bufferView":37,
			"componentType":5126,
			"count":48,
			"type":"VEC3"
		},
		{
			"bufferView":38,
			"componentType":5126,
			"count":48,
			"type":"VEC2"
		},
		{
			"bufferView":39,
			"componentType":5123,
			"count":78,
			"type":"SCALAR"
		},
		{
			"bufferView":40,
			"componentType":5126,
			"count":4,
			"max":[
				-0.25,
				1,
				0.5
			],
			"min":[
				-0.75,
				1,
				-0.5
			],
			"type":"VEC3"
		},
		{
			"bufferView":41,
			"componentType":5126,
			"count":4,
			"type":"VEC3"
		},
		{
			"bufferView":42,
			"componentType":5126,
			"count":4,
			"type":"VEC2"
		},
		{
			"bufferView":43,
			"componentType":5123,
			"count":6,
			"type":"SCALAR"
		}
	],
	"bufferViews":[
		{
			"buffer":0,
			"byteLength":56952,
			"byteOffset":0,
			"target":34962
		},
		{
			"buffer":0,
			"byteLength":56952,
			"byteOffset":56952,
			"target":34962
		},
		{
			"buffer":0,
			"byteLength":37968,
			"byteOffset":113904,
			"target":34962
		},
		{
			"buffer":0,
			"byteLength":36162,
			"byteOffset":151872,
			"target":34963
		},
		{
			"buffer":0,
			"byteLength":111684,
			"byteOffset":188036,
			"target":34962
		},
		{
			"buffer":0,
			"byteLength":111684,
			"byteOffset":299720,
			"target":34962
		},
		{
			"buffer":0,
			"byteLength":74456,
			"byteOffset":411404,
			"target":34962
		},
		{
			"buffer":0,
			"byteLength":57786,
			"byteOffset":485860,
			"target":34963
		},
		{
			"buffer":0,
			"byteLength":91176,
			"byteOffset":543648,
			"target":34962
		},
		{
			"buffer":0,
			"byteLength":91176,
			"byteOffset":634824,
			"target":34962
		},
		{
			"buffer":0,
			"byteLength":60784,
			"byteOffset":726000,
			"target":34962
		},
		{
			"buffer":0,
			"byteLength":72816,
			"byteOffset":786784,
			"target":34963
		},
		{
			"buffer":0,
			"byteLength":38160,
			"byteOffset":859600,
			"target":34962
		},
		{
			"buffer":0,
			"byteLength":38160,
			"byteOffset":897760,
			"target":34962
		},
		{
			"buffer":0,
			"byteLength":25440,
			"byteOffset":935920,
			"target":34962
		},
		{
			"buffer":0,
			"byteLength":20958,
			"byteOffset":961360,
			"target":34963
		},
		{
			"buffer":0,
			"byteLength":48300,
			"byteOffset":982320,
			"target":34962
		},
		{
			"buffer":0,
			"byteLength":48300,
			"byteOffset":1030620,
			"target":34962
		},
		{
			"buffer":0,
			"byteLength":32200,
			"byteOffset":1078920,
			"target":34962
		},
		{
			"buffer":0,
			"byteLength":38028,
			"byteOffset":1111120,
			"target":34963
		},
		{
			"buffer":0,
			"byteLength":120024,
			"byteOffset":1149148,
			"target":34962
		},
		{
			"buffer":0,
			"byteLength":120024,
			"byteOffset":1269172,
			"target":34962
		},
		{
			"buffer":0,
			"byteLength":80016,
			"byteOffset":1389196,
			"target":34962
		},
		{
			"buffer":0,
			"byteLength":102768,
			"byteOffset":1469212,
			"target":34963
		},
		{
			"buffer":0,
			"byteLength":41556,
			"byteOffset":1571980,
			"target":34962
		},
		{
			"buffer":0,
			"byteLength":41556,
			"byteOffset":1613536,
			"target":34962
		},
		{
			"buffer":0,
			"byteLength":27704,
			"byteOffset":1655092,
			"target":34962
		},
		{
			"buffer":0,
			"byteLength":33840,
			"byteOffset":1682796,
			"target":34963
		},
		{
			"buffer":0,
			"byteLength":119064,
			"byteOffset":1716636,
			"target":34962
		},
		{
			"buffer":0,
			"byteLength":119064,
			"byteOffset":1835700,
			"target":34962
		},
		{
			"buffer":0,
			"byteLength":79376,
			"byteOffset":1954764,
			"target":34962
		},
		{
			"buffer":0,
			"byteLength":102468,
			"byteOffset":2034140,
			"target":34963
		},
		{
			"buffer":0,
			"byteLength":2712,
			"byteOffset":2136608,
			"target":34962
		},
		{
			"buffer":0,
			"byteLength":2712,
			"byteOffset":2139320,
			"target":34962
		},
		{
			"buffer":0,
			"byteLength":1808,
			"byteOffset":2142032,
			"target":34962
		},
		{
			"buffer":0,
			"byteLength":1524,
			"byteOffset":2143840,
			"target":34963
		},
		{
			"buffer":0,
			"byteLength":576,
			"byteOffset":2145364,
			"target":34962
		},
		{
			"buffer":0,
			"byteLength":576,
			"byteOffset":2145940,
			"target":34962
		},
		{
			"buffer":0,
			"byteLength":384,
			"byteOffset":2146516,
			"target":34962
		},
		{
			"buffer":0,
			"byteLength":156,
			"byteOffset":2146900,
			"target":34963
		},
		{
			"buffer":0,
			"byteLength":48,
			"byteOffset":2147056,
			"target":34962
		},
		{
			"buffer":0,
			"byteLength":48,
			"byteOffset":2147104,
			"target":34962
		},
		{
			"buffer":0,
			"byteLength":32,
			"byteOffset":2147152,
			"target":34962
		},
		{
			"buffer":0,
			"byteLength":12,
			"byteOffset":2147184,
			"target":34963
		}
	],
	"samplers":[
		{
			"magFilter":9729,
			"minFilter":9987
		}
	],
	"buffers":[
		{
			"byteLength":2147196,
			"uri":"CornellBox_girl.bin"
		}
	]
}
