{
	"asset":{
		"generator":"Khronos glTF Blender I/O v4.2.57",
		"version":"2.0"
	},
	"scene":0,
	"scenes":[
		{
			"name":"Scene",
			"nodes":[
				0,
				1,
				2,
				3,
				4,
				5,
				6
			]
		}
	],
	"nodes":[
		{
			"mesh":0,
			"name":"Cube",
			"scale":[
				8,
				4,
				4
			],
			"translation":[
				0,
				4,
				0
			]
		},
		{
			"mesh":1,
			"name":"Sphere",
			"translation":[
				-4,
				4,
				2
			]
		},
		{
			"mesh":2,
			"name":"Sphere.001",
			"translation":[
				-4,
				4,
				0
			]
		},
		{
			"mesh":3,
			"name":"Sphere.002",
			"translation":[
				-4,
				4,
				-2
			]
		},
		{
			"mesh":4,
			"name":"Sphere.003",
			"translation":[
				-4,
				2,
				2
			]
		},
		{
			"mesh":5,
			"name":"Sphere.004",
			"translation":[
				-4,
				2,
				0
			]
		},
		{
			"mesh":6,
			"name":"Sphere.005",
			"translation":[
				-4,
				2,
				-2
			]
		}
	],
	"materials":[
		{
			"doubleSided":true,
			"name":"BaseTexture",
			"pbrMetallicRoughness":{
				"baseColorTexture":{
					"index":0
				},
				"metallicFactor":0,
				"roughnessFactor":0.5
			}
		},
		{
			"doubleSided":true,
			"name":"BaseTexture.001",
			"pbrMetallicRoughness":{
				"baseColorTexture":{
					"index":1
				},
				"metallicFactor":0.20000000298023224,
				"roughnessFactor":0.5
			}
		},
		{
			"doubleSided":true,
			"name":"BaseTexture.002",
			"pbrMetallicRoughness":{
				"baseColorTexture":{
					"index":2
				},
				"metallicFactor":0.4000000059604645,
				"roughnessFactor":0.5
			}
		},
		{
			"doubleSided":true,
			"name":"BaseTexture.003",
			"pbrMetallicRoughness":{
				"baseColorTexture":{
					"index":3
				},
				"metallicFactor":0.6000000238418579,
				"roughnessFactor":0.5
			}
		},
		{
			"doubleSided":true,
			"name":"BaseTexture.004",
			"pbrMetallicRoughness":{
				"baseColorTexture":{
					"index":4
				},
				"metallicFactor":0.800000011920929,
				"roughnessFactor":0.5
			}
		},
		{
			"doubleSided":true,
			"name":"BaseTexture.005",
			"pbrMetallicRoughness":{
				"baseColorTexture":{
					"index":5
				},
				"roughnessFactor":0.5
			}
		}
	],
	"meshes":[
		{
			"name":"Cube",
			"primitives":[
				{
					"attributes":{
						"POSITION":0,
						"NORMAL":1,
						"TEXCOORD_0":2
					},
					"indices":3,
					"material":0
				}
			]
		},
		{
			"name":"Sphere.007",
			"primitives":[
				{
					"attributes":{
						"POSITION":4,
						"NORMAL":5,
						"TEXCOORD_0":6
					},
					"indices":7,
					"material":0
				}
			]
		},
		{
			"name":"Sphere.008",
			"primitives":[
				{
					"attributes":{
						"POSITION":8,
						"NORMAL":9,
						"TEXCOORD_0":10
					},
					"indices":7,
					"material":1
				}
			]
		},
		{
			"name":"Sphere.009",
			"primitives":[
				{
					"attributes":{
						"POSITION":11,
						"NORMAL":12,
						"TEXCOORD_0":13
					},
					"indices":7,
					"material":2
				}
			]
		},
		{
			"name":"Sphere.010",
			"primitives":[
				{
					"attributes":{
						"POSITION":14,
						"NORMAL":15,
						"TEXCOORD_0":16
					},
					"indices":7,
					"material":3
				}
			]
		},
		{
			"name":"Sphere.001",
			"primitives":[
				{
					"attributes":{
						"POSITION":17,
						"NORMAL":18,
						"TEXCOORD_0":19
					},
					"indices":7,
					"material":4
				}
			]
		},
		{
			"name":"Sphere.002",
			"primitives":[
				{
					"attributes":{
						"POSITION":20,
						"NORMAL":21,
						"TEXCOORD_0":22
					},
					"indices":7,
					"material":5
				}
			]
		}
	],
	"textures":[
		{
			"sampler":0,
			"source":0
		},
		{
			"sampler":0,
			"source":0
		},
		{
			"sampler":0,
			"source":0
		},
		{
			"sampler":0,
			"source":0
		},
		{
			"sampler":0,
			"source":0
		},
		{
			"sampler":0,
			"source":0
		}
	],
	"images":[
		{
			"mimeType":"image/png",
			"name":"baseColor",
			"uri":"baseColor.png"
		}
	],
	"accessors":[
		{
			"bufferView":0,
			"componentType":5126,
			"count":38,
			"max":[
				1,
				1,
				1
			],
			"min":[
				-1,
				-1,
				-1
			],
			"type":"VEC3"
		},
		{
			"bufferView":1,
			"componentType":5126,
			"count":38,
			"type":"VEC3"
		},
		{
			"bufferView":2,
			"componentType":5126,
			"count":38,
			"type":"VEC2"
		},
		{
			"bufferView":3,
			"componentType":5123,
			"count":60,
			"type":"SCALAR"
		},
		{
			"bufferView":4,
			"componentType":5126,
			"count":427,
			"max":[
				0.7999996542930603,
				0.800000011920929,
				0.7999994158744812
			],
			"min":[
				-0.7999992370605469,
				-0.800000011920929,
				-0.7999991178512573
			],
			"type":"VEC3"
		},
		{
			"bufferView":5,
			"componentType":5126,
			"count":427,
			"type":"VEC3"
		},
		{
			"bufferView":6,
			"componentType":5126,
			"count":427,
			"type":"VEC2"
		},
		{
			"bufferView":7,
			"componentType":5123,
			"count":2112,
			"type":"SCALAR"
		},
		{
			"bufferView":8,
			"componentType":5126,
			"count":427,
			"max":[
				0.7999996542930603,
				0.800000011920929,
				0.7999994158744812
			],
			"min":[
				-0.7999992370605469,
				-0.800000011920929,
				-0.7999991178512573
			],
			"type":"VEC3"
		},
		{
			"bufferView":9,
			"componentType":5126,
			"count":427,
			"type":"VEC3"
		},
		{
			"bufferView":10,
			"componentType":5126,
			"count":427,
			"type":"VEC2"
		},
		{
			"bufferView":11,
			"componentType":5126,
			"count":427,
			"max":[
				0.7999996542930603,
				0.800000011920929,
				0.7999994158744812
			],
			"min":[
				-0.7999992370605469,
				-0.800000011920929,
				-0.7999991178512573
			],
			"type":"VEC3"
		},
		{
			"bufferView":12,
			"componentType":5126,
			"count":427,
			"type":"VEC3"
		},
		{
			"bufferView":13,
			"componentType":5126,
			"count":427,
			"type":"VEC2"
		},
		{
			"bufferView":14,
			"componentType":5126,
			"count":427,
			"max":[
				0.7999996542930603,
				0.800000011920929,
				0.7999994158744812
			],
			"min":[
				-0.7999992370605469,
				-0.800000011920929,
				-0.7999991178512573
			],
			"type":"VEC3"
		},
		{
			"bufferView":15,
			"componentType":5126,
			"count":427,
			"type":"VEC3"
		},
		{
			"bufferView":16,
			"componentType":5126,
			"count":427,
			"type":"VEC2"
		},
		{
			"bufferView":17,
			"componentType":5126,
			"count":427,
			"max":[
				0.7999996542930603,
				0.800000011920929,
				0.7999994158744812
			],
			"min":[
				-0.7999992370605469,
				-0.800000011920929,
				-0.7999991178512573
			],
			"type":"VEC3"
		},
		{
			"bufferView":18,
			"componentType":5126,
			"count":427,
			"type":"VEC3"
		},
		{
			"bufferView":19,
			"componentType":5126,
			"count":427,
			"type":"VEC2"
		},
		{
			"bufferView":20,
			"componentType":5126,
			"count":427,
			"max":[
				0.7999996542930603,
				0.800000011920929,
				0.7999994158744812
			],
			"min":[
				-0.7999992370605469,
				-0.800000011920929,
				-0.7999991178512573
			],
			"type":"VEC3"
		},
		{
			"bufferView":21,
			"componentType":5126,
			"count":427,
			"type":"VEC3"
		},
		{
			"bufferView":22,
			"componentType":5126,
			"count":427,
			"type":"VEC2"
		}
	],
	"bufferViews":[
		{
			"buffer":0,
			"byteLength":456,
			"byteOffset":0,
			"target":34962
		},
		{
			"buffer":0,
			"byteLength":456,
			"byteOffset":456,
			"target":34962
		},
		{
			"buffer":0,
			"byteLength":304,
			"byteOffset":912,
			"target":34962
		},
		{
			"buffer":0,
			"byteLength":120,
			"byteOffset":1216,
			"target":34963
		},
		{
			"buffer":0,
			"byteLength":5124,
			"byteOffset":1336,
			"target":34962
		},
		{
			"buffer":0,
			"byteLength":5124,
			"byteOffset":6460,
			"target":34962
		},
		{
			"buffer":0,
			"byteLength":3416,
			"byteOffset":11584,
			"target":34962
		},
		{
			"buffer":0,
			"byteLength":4224,
			"byteOffset":15000,
			"target":34963
		},
		{
			"buffer":0,
			"byteLength":5124,
			"byteOffset":19224,
			"target":34962
		},
		{
			"buffer":0,
			"byteLength":5124,
			"byteOffset":24348,
			"target":34962
		},
		{
			"buffer":0,
			"byteLength":3416,
			"byteOffset":29472,
			"target":34962
		},
		{
			"buffer":0,
			"byteLength":5124,
			"byteOffset":32888,
			"target":34962
		},
		{
			"buffer":0,
			"byteLength":5124,
			"byteOffset":38012,
			"target":34962
		},
		{
			"buffer":0,
			"byteLength":3416,
			"byteOffset":43136,
			"target":34962
		},
		{
			"buffer":0,
			"byteLength":5124,
			"byteOffset":46552,
			"target":34962
		},
		{
			"buffer":0,
			"byteLength":5124,
			"byteOffset":51676,
			"target":34962
		},
		{
			"buffer":0,
			"byteLength":3416,
			"byteOffset":56800,
			"target":34962
		},
		{
			"buffer":0,
			"byteLength":5124,
			"byteOffset":60216,
			"target":34962
		},
		{
			"buffer":0,
			"byteLength":5124,
			"byteOffset":65340,
			"target":34962
		},
		{
			"buffer":0,
			"byteLength":3416,
			"byteOffset":70464,
			"target":34962
		},
		{
			"buffer":0,
			"byteLength":5124,
			"byteOffset":73880,
			"target":34962
		},
		{
			"buffer":0,
			"byteLength":5124,
			"byteOffset":79004,
			"target":34962
		},
		{
			"buffer":0,
			"byteLength":3416,
			"byteOffset":84128,
			"target":34962
		}
	],
	"samplers":[
		{
			"magFilter":9729,
			"minFilter":9987
		}
	],
	"buffers":[
		{
			"byteLength":87544,
			"uri":"CornellBox_Metallic.bin"
		}
	]
}
