{
	"asset":{
		"generator":"Khronos glTF Blender I/O v4.2.57",
		"version":"2.0"
	},
	"extensionsUsed":[
		"KHR_materials_specular"
	],
	"scene":0,
	"scenes":[
		{
			"name":"Scene",
			"nodes":[
				0
			]
		}
	],
	"nodes":[
		{
			"mesh":0,
			"name":"chair",
			"rotation":[
				0.7071068286895752,
				0,
				0,
				0.7071068286895752
			]
		}
	],
	"materials":[
		{
			"doubleSided":true,
			"extensions":{
				"KHR_materials_specular":{
					"specularFactor":0
				}
			},
			"name":"??",
			"pbrMetallicRoughness":{
				"baseColorFactor":[
					0.800000011920929,
					0.800000011920929,
					0.800000011920929,
					1
				],
				"metallicFactor":0
			}
		}
	],
	"meshes":[
		{
			"name":"chair",
			"primitives":[
				{
					"attributes":{
						"POSITION":0,
						"NORMAL":1,
						"TEXCOORD_0":2
					},
					"indices":3,
					"material":0
				}
			]
		}
	],
	"accessors":[
		{
			"bufferView":0,
			"componentType":5126,
			"count":6954,
			"max":[
				18,
				18,
				0
			],
			"min":[
				-18,
				-18,
				-45
			],
			"type":"VEC3"
		},
		{
			"bufferView":1,
			"componentType":5126,
			"count":6954,
			"type":"VEC3"
		},
		{
			"bufferView":2,
			"componentType":5126,
			"count":6954,
			"type":"VEC2"
		},
		{
			"bufferView":3,
			"componentType":5123,
			"count":19932,
			"type":"SCALAR"
		}
	],
	"bufferViews":[
		{
			"buffer":0,
			"byteLength":83448,
			"byteOffset":0,
			"target":34962
		},
		{
			"buffer":0,
			"byteLength":83448,
			"byteOffset":83448,
			"target":34962
		},
		{
			"buffer":0,
			"byteLength":55632,
			"byteOffset":166896,
			"target":34962
		},
		{
			"buffer":0,
			"byteLength":39864,
			"byteOffset":222528,
			"target":34963
		}
	],
	"buffers":[
		{
			"byteLength":262392,
			"uri":"chair.bin"
		}
	]
}
